<?xml version="1.0" standalone="no"?>
<!DOCTYPE svg PUBLIC "-//W3C//DTD SVG 20010904//EN"
 "http://www.w3.org/TR/2001/REC-SVG-20010904/DTD/svg10.dtd">
<svg version="1.0" xmlns="http://www.w3.org/2000/svg"
 width="1%" height="1%" viewBox="0 0 2140.000000 1313.000000"
 preserveAspectRatio="xMidYMid meet">
<metadata>
Created by Potrace Professional 1.1m
</metadata>
<g transform="translate(0.000000,1313.000000) rotate(-360.00) scale(0.095238,-0.095238)"
fill="#000000" stroke="none">
<path d="M0 6893 l0 -6893 11235 0 11235 0 0 6893 0 6894 -11235 0 -11235 0 0
-6894z m12602 5494 c21 -36 92 -158 158 -271 l119 -205 24 -167 c17 -114 42
-230 81 -362 l56 -194 40 -2373 41 -2373 -25 -74 c-33 -98 -161 -546 -201
-703 -18 -70 -45 -167 -61 -217 l-29 -90 -215 -190 -216 -191 -5 -932 -5 -932
-945 -3 c-520 -1 -956 0 -969 3 l-23 6 0 927 0 926 -224 193 -223 193 -153
542 -153 542 41 2373 41 2373 54 184 c36 122 62 242 80 362 l27 178 152 271
152 270 1171 0 1172 0 38 -66z m840 -9452 c5 -18 61 -334 125 -704 64 -369
124 -720 135 -779 10 -59 16 -110 13 -113 -9 -9 -4641 -6 -4646 2 -2 5 9 81
25 171 76 426 115 654 112 656 -1 2 -100 20 -218 41 -118 22 -221 41 -227 43
-8 3 -1 68 25 217 20 118 39 217 43 220 4 4 108 -12 231 -35 123 -22 226 -39
227 -37 2 1 16 76 32 166 15 89 29 168 32 175 3 11 417 13 2043 11 l2039 -3 9
-31z"/>
<path d="M10088 12181 c-74 -131 -134 -242 -134 -246 0 -4 18 -7 39 -7 l40 1
126 236 c69 130 127 241 129 246 2 6 -12 10 -31 10 -35 0 -36 -2 -169 -240z"/>
<path d="M10190 12185 c-69 -130 -127 -241 -129 -247 -3 -7 47 -10 140 -8
l145 3 102 244 102 245 -117 -1 -117 0 -126 -236z"/>
<path d="M10556 12382 c-9 -22 -56 -133 -103 -247 l-87 -207 223 0 224 0 54
228 c30 126 57 237 60 247 5 17 -9 19 -175 19 l-180 0 -16 -40z"/>
<path d="M10899 12193 c-30 -125 -56 -237 -59 -247 -5 -17 13 -18 268 -18
l274 0 0 247 0 247 -214 0 -214 0 -55 -229z"/>
<path d="M11414 12175 l0 -247 268 0 c251 0 268 1 263 18 -3 10 -29 122 -59
247 l-55 229 -209 0 -208 0 0 -247z"/>
<path d="M11858 12403 c3 -10 30 -121 60 -247 l54 -228 229 0 229 0 -103 244
-102 244 -186 3 c-174 3 -186 2 -181 -16z"/>
<path d="M12347 12178 l103 -245 138 -3 c76 -1 138 1 138 6 -1 4 -56 114 -124
244 l-123 236 -117 3 -117 3 102 -244z"/>
<path d="M12506 12414 c0 -5 56 -115 123 -244 l123 -237 45 -3 c24 -2 45 0 45
3 0 4 -63 115 -140 248 -128 221 -141 240 -168 240 -16 0 -28 -3 -28 -7z"/>
<path d="M9919 11779 c-9 -64 -16 -119 -14 -120 2 -2 27 51 56 117 l54 121
-39 0 -39 0 -18 -118z"/>
<path d="M10015 11847 c-12 -28 -42 -96 -67 -153 -25 -56 -40 -99 -33 -95 24
14 386 289 386 293 0 3 -60 5 -132 5 l-132 0 -22 -50z"/>
<path d="M10150 11753 c-103 -78 -185 -144 -183 -146 4 -4 754 277 763 285 3
3 -85 4 -194 4 l-199 -1 -187 -142z"/>
<path d="M10519 11788 c-154 -58 -279 -108 -277 -110 4 -3 723 208 730 214 2
3 -36 4 -84 4 -86 -1 -97 -4 -369 -108z"/>
<path d="M10697 11789 c-195 -58 -353 -108 -351 -109 2 -2 213 45 470 106
l466 109 -115 0 -116 0 -354 -106z"/>
<path d="M10684 11733 l-683 -161 1397 0 1396 0 -687 162 c-379 89 -700 161
-714 161 -15 0 -334 -73 -709 -162z"/>
<path d="M11980 11786 c256 -61 467 -109 469 -107 2 2 -163 52 -367 111 -359
105 -372 107 -469 106 l-100 -1 467 -109z"/>
<path d="M11819 11890 c29 -12 723 -213 725 -210 2 2 -125 51 -283 110 -278
104 -288 107 -370 106 -46 -1 -78 -3 -72 -6z"/>
<path d="M12055 11892 c9 -8 769 -289 773 -285 2 2 -81 68 -185 147 l-189 143
-202 0 c-111 0 -200 -2 -197 -5z"/>
<path d="M12495 11893 c0 -5 360 -279 385 -294 7 -4 -19 60 -58 142 l-72 150
-127 3 c-71 2 -128 1 -128 -1z"/>
<path d="M12779 11887 c0 -4 26 -62 58 -128 48 -98 57 -112 52 -78 -3 23 -11
81 -17 129 l-13 87 -40 0 c-22 0 -40 -5 -40 -10z"/>
<path d="M9971 11458 c40 -45 147 -168 239 -273 l168 -191 1020 0 1020 0 167
191 c92 105 200 228 239 273 l72 82 -1498 0 -1498 0 71 -82z"/>
<path d="M9891 8651 l0 -2872 181 -18 c100 -10 206 -21 236 -25 l56 -6 0 2627
0 2627 -223 254 c-122 140 -228 261 -236 270 -12 13 -14 -448 -14 -2857z"/>
<path d="M12666 11250 l-234 -267 0 -2626 0 -2627 50 6 c27 3 131 14 230 24
l180 19 7 452 c4 249 5 1540 4 2869 l-4 2417 -233 -267z"/>
<path d="M9820 11332 c-29 -97 -34 -135 -39 -270 -3 -87 -13 -1202 -22 -2478
l-16 -2321 57 -194 58 -194 1 2785 c0 1532 -1 2785 -3 2785 -2 0 -18 -51 -36
-113z"/>
<path d="M12933 11188 c-4 -145 -7 -1399 -7 -2788 l1 -2525 58 194 57 194 -12
2373 c-6 1305 -16 2430 -21 2499 -6 90 -17 153 -39 221 l-30 94 -7 -262z"/>
<path d="M10396 10860 c0 -57 9 -322 18 -591 l18 -488 961 0 960 0 23 520 c13
285 23 551 24 590 l1 71 -1003 0 -1003 0 1 -102z"/>
<path d="M10437 9276 l0 -468 25 19 c14 11 108 95 208 188 l182 169 267 72
c147 39 273 72 279 72 5 0 128 -33 273 -72 l262 -72 202 -182 c111 -100 204
-182 207 -182 3 0 6 208 6 462 l0 462 -955 0 -956 0 0 -468z"/>
<path d="M11110 9226 l-256 -65 -188 -173 -188 -173 463 -3 c255 -1 669 -1
920 0 l456 3 -193 173 -193 173 -261 66 c-144 37 -271 66 -283 65 -11 -1 -136
-31 -277 -66z"/>
<path d="M10458 7849 l0 -929 940 0 940 0 0 929 0 929 -940 0 -940 0 0 -929z"/>
<path d="M13060 7602 c3 -650 9 -1191 13 -1202 22 -59 22 152 3 1223 l-21
1160 5 -1181z"/>
<path d="M12380 7129 c1 -735 5 -1263 11 -1275 5 -13 7 478 3 1249 -4 699 -8
1273 -11 1275 -2 3 -3 -560 -3 -1249z"/>
<path d="M9728 7896 c0 -159 1 -224 3 -144 2 79 2 209 0 288 -2 80 -3 15 -3
-144z"/>
<path d="M9707 7005 c-5 -416 -4 -593 4 -607 8 -14 11 146 12 587 0 334 -2
607 -4 607 -2 0 -7 -265 -12 -587z"/>
<path d="M10400 6437 c0 -321 1 -452 3 -292 1 160 1 423 0 583 -2 160 -3 29
-3 -291z"/>
<path d="M10458 6405 l0 -483 940 0 940 0 0 483 0 483 -940 0 -940 0 0 -483z"/>
<path d="M10458 5812 l0 -79 940 0 940 0 0 79 0 79 -940 0 -940 0 0 -79z"/>
<path d="M10412 5820 c-4 -22 -9 -50 -13 -63 -5 -18 -2 -24 11 -24 13 0 17 12
17 63 0 35 -2 63 -4 63 -3 0 -7 -18 -11 -39z"/>
<path d="M12370 5783 c-1 -38 3 -50 15 -50 8 0 15 1 15 3 0 1 -7 24 -15 50
l-15 47 0 -50z"/>
<path d="M9907 5704 c9 -27 20 -67 26 -89 6 -22 13 -39 14 -39 10 0 378 135
369 136 -6 0 -95 10 -199 21 -252 27 -228 31 -210 -29z"/>
<path d="M12663 5732 c-90 -10 -170 -19 -178 -20 -15 -1 311 -123 345 -129 9
-1 22 25 39 82 13 46 25 85 25 86 0 6 -73 0 -231 -19z"/>
<path d="M10190 5638 l-168 -61 202 -1 203 0 0 63 0 63 -35 -1 c-18 -1 -109
-29 -202 -63z"/>
<path d="M10458 5639 l0 -63 940 0 940 0 0 63 0 63 -940 0 -940 0 0 -63z"/>
<path d="M12369 5639 l0 -63 202 0 202 1 -172 62 c-95 34 -186 63 -202 63 -30
0 -30 -1 -30 -63z"/>
<path d="M9958 5526 c3 -10 13 -48 23 -84 l18 -66 214 0 214 0 0 84 0 84 -237
0 c-221 0 -237 -1 -232 -18z"/>
<path d="M10458 5492 l0 -53 940 0 940 0 0 53 0 52 -940 0 -940 0 0 -52z"/>
<path d="M12369 5460 l0 -84 209 0 210 0 15 55 c9 30 19 68 23 84 l7 29 -232
0 -232 0 0 -84z"/>
<path d="M10458 5392 c0 -14 111 -16 940 -16 828 0 940 2 940 16 0 14 -112 16
-940 16 -829 0 -940 -2 -940 -16z"/>
<path d="M10038 5330 c9 -7 87 -74 173 -148 87 -75 171 -147 187 -162 l29 -26
0 175 0 176 -202 0 c-169 0 -200 -3 -187 -15z"/>
<path d="M10458 5161 l0 -184 940 0 940 0 0 184 0 184 -940 0 -940 0 0 -184z"/>
<path d="M12369 5169 l0 -175 34 32 c19 17 98 87 176 156 78 68 151 133 162
143 21 19 16 20 -175 20 l-197 0 0 -176z"/>
<path d="M10458 4914 l0 -31 940 0 940 0 0 31 0 32 -940 0 -940 0 0 -32z"/>
<path d="M10458 4662 l0 -189 940 0 940 0 0 189 0 189 -940 0 -940 0 0 -189z"/>
<path d="M10458 4195 l0 -247 940 0 940 0 0 247 0 247 -940 0 -940 0 0 -247z"/>
<path d="M10458 3528 l0 -388 940 0 940 0 0 388 0 389 -940 0 -940 0 0 -389z"/>
<path d="M9429 2926 c9 -8 131 -101 273 -207 l256 -192 416 23 c591 33 1457
33 2048 0 l415 -23 257 192 c141 106 264 199 272 207 13 12 -288 14 -1968 14
-1680 0 -1982 -2 -1969 -14z"/>
<path d="M13130 2724 l-283 -213 -108 -240 c-59 -131 -107 -244 -107 -249 0
-5 24 -75 54 -155 l54 -146 184 -154 184 -153 287 -26 c158 -14 290 -23 292
-21 4 4 -263 1541 -271 1564 -1 3 -130 -90 -286 -207z"/>
<path d="M9372 2901 c-5 -26 -89 -487 -231 -1267 -27 -144 -46 -264 -43 -267
2 -2 134 7 292 21 l287 26 184 153 183 153 60 146 c33 80 60 150 60 154 0 5
-48 117 -107 250 l-107 241 -273 201 c-150 111 -278 205 -286 210 -9 5 -15 -2
-19 -21z"/>
<path d="M8837 2624 c-4 -24 -6 -45 -4 -46 5 -5 430 -80 433 -77 2 2 6 22 10
46 l7 43 -213 38 c-118 22 -217 39 -220 39 -3 0 -9 -20 -13 -43z"/>
<path d="M8811 2477 c-7 -42 -11 -76 -10 -78 6 -5 431 -80 433 -77 5 6 28 148
25 151 -3 2 -418 79 -430 79 -3 0 -11 -34 -18 -75z"/>
<path d="M10571 2533 c25 -2 63 -2 84 0 22 3 1 4 -45 4 -46 0 -64 -1 -39 -4z"/>
<path d="M11055 2533 c192 -1 504 -1 693 0 188 2 31 3 -350 3 -381 0 -536 -1
-343 -3z"/>
<path d="M12146 2533 c25 -2 63 -2 84 0 22 3 1 4 -45 4 -46 0 -64 -1 -39 -4z"/>
<path d="M9986 2491 c0 -13 189 -437 199 -448 8 -8 606 23 618 31 1 2 -22 98
-52 214 l-54 211 -356 0 c-196 0 -355 -4 -355 -8z"/>
<path d="M10725 2481 c2 -10 27 -105 54 -210 l50 -192 569 0 569 0 49 192 c27
105 52 200 55 210 5 17 -32 18 -673 18 -642 0 -679 -1 -673 -18z"/>
<path d="M12044 2288 c-30 -116 -53 -212 -51 -214 11 -8 610 -39 617 -31 11
11 200 435 200 448 0 4 -160 8 -356 8 l-355 0 -55 -211z"/>
<path d="M8784 2325 c-4 -27 -6 -50 -4 -51 6 -6 430 -81 434 -78 2 2 6 25 10
52 l7 48 -213 38 c-118 22 -217 39 -221 39 -3 0 -9 -22 -13 -48z"/>
<path d="M11034 2040 c204 -2 534 -2 735 0 200 1 33 3 -371 3 -404 0 -568 -2
-364 -3z"/>
<path d="M10295 1719 c54 -157 103 -300 110 -317 l12 -31 268 268 c147 147
287 289 310 317 l42 50 -420 0 -420 0 98 -287z"/>
<path d="M10757 1688 l-315 -318 481 -2 c265 -2 695 -2 956 0 l474 2 -314 318
-314 318 -327 0 -327 0 -314 -318z"/>
<path d="M11800 1956 c24 -28 163 -170 311 -317 l267 -268 12 31 c7 17 57 160
111 317 l98 287 -421 0 -420 0 42 -50z"/>
<path d="M10167 1960 c-7 -14 -32 -74 -56 -132 l-43 -106 31 -39 c18 -22 89
-96 159 -166 l127 -126 -94 273 c-51 150 -98 284 -103 298 l-9 24 -12 -26z"/>
<path d="M12608 1966 c-3 -10 -49 -143 -101 -296 l-96 -279 137 142 c75 78
144 152 153 165 15 22 13 32 -33 155 -27 72 -51 132 -52 132 -2 0 -5 -9 -8
-19z"/>
<path d="M9917 1593 c-70 -59 -147 -124 -172 -145 l-45 -37 333 -23 c183 -13
336 -21 339 -18 6 6 -313 332 -323 330 -3 0 -63 -48 -132 -107z"/>
<path d="M12569 1533 c-115 -121 -154 -168 -139 -168 22 0 588 40 630 45 19 2
-9 30 -146 144 -94 78 -174 143 -177 145 -4 1 -79 -73 -168 -166z"/>
<path d="M9508 1376 c-35 -4 52 -8 194 -8 185 0 232 2 168 8 -107 9 -275 9
-362 0z"/>
<path d="M12905 1376 c-47 -4 26 -7 178 -8 162 0 232 3 189 8 -81 9 -258 9
-367 0z"/>
</g>
</svg>
