<?xml version="1.0" standalone="no"?>
<!DOCTYPE svg PUBLIC "-//W3C//DTD SVG 20010904//EN"
 "http://www.w3.org/TR/2001/REC-SVG-20010904/DTD/svg10.dtd">
<svg version="1.0" xmlns="http://www.w3.org/2000/svg"
 width="2140.000000pt" height="1313.000000pt" viewBox="0 0 2140.000000 1313.000000"
 preserveAspectRatio="xMidYMid meet">
<metadata>
Created by Potrace Professional 1.1m
</metadata>
<g transform="translate(0.000000,1313.000000) rotate(-360.00) scale(0.095238,-0.095238)"
fill="#000000" stroke="none">
<path d="M0 6893 l0 -6893 11235 0 11235 0 0 6893 0 6894 -11235 0 -11235 0 0
-6894z m12413 5552 c2 -4 126 -126 276 -270 l273 -263 33 -179 32 -180 143
-293 144 -293 142 -613 142 -613 0 -1918 0 -1917 -213 -145 c-314 -214 -545
-374 -877 -607 l-296 -208 -976 0 -976 0 -372 259 c-601 420 -644 450 -834
578 l-181 122 0 1918 0 1918 145 623 146 624 140 283 140 284 32 178 32 179
273 263 c150 144 274 266 276 270 2 4 532 8 1178 8 646 0 1176 -4 1178 -8z
m-3614 -5071 l0 -1951 404 -270 403 -271 143 1 142 0 293 -205 294 -205 757 0
757 0 294 205 293 204 142 1 143 0 403 270 404 270 0 1951 0 1950 255 0 c140
0 259 -4 266 -8 12 -8 34 -153 62 -412 9 -84 69 -575 132 -1092 l114 -940 0
-1470 1 -1470 -552 -412 -552 -412 -2162 0 -2162 0 -552 412 -551 412 0 1470
0 1470 114 940 c63 517 123 1008 132 1092 28 259 50 404 62 412 7 4 126 8 266
8 l255 0 0 -1950z m5128 -4623 c105 -124 195 -221 205 -221 10 0 72 7 138 16
66 8 134 16 152 18 l31 3 28 -252 c15 -138 25 -254 24 -258 -2 -3 -66 -14
-144 -25 l-140 -20 -24 -146 c-25 -147 -25 -147 -112 -311 l-88 -164 -145 -29
-145 -28 -2472 0 -2472 0 -145 28 -145 29 -88 164 c-87 164 -87 164 -112 311
l-24 146 -140 20 c-78 11 -142 22 -144 25 -1 4 9 120 24 258 l28 252 31 -3
c18 -2 86 -10 152 -18 66 -9 128 -15 138 -15 10 0 100 96 205 220 l188 220
2504 0 2504 0 188 -220z"/>
<path d="M9802 12175 l-252 -246 69 -1 70 0 182 207 c101 114 199 225 218 247
l35 40 -35 -1 c-32 0 -61 -25 -287 -246z"/>
<path d="M9963 12214 c-100 -114 -198 -225 -218 -247 l-35 -39 188 0 187 0
147 238 c81 131 149 242 151 247 2 5 -51 9 -117 9 l-120 0 -183 -208z"/>
<path d="M10264 12183 c-81 -130 -149 -241 -151 -246 -2 -5 110 -9 249 -9
l252 0 75 234 c41 128 77 239 79 246 3 11 -36 13 -176 13 l-181 0 -147 -238z"/>
<path d="M10721 12188 c-42 -129 -77 -240 -79 -247 -4 -10 59 -13 289 -13
l294 0 0 247 0 247 -215 0 -215 0 -74 -234z"/>
<path d="M11256 12175 l0 -247 288 0 c226 0 288 3 284 13 -2 7 -37 118 -79
247 l-74 234 -210 0 -209 0 0 -247z"/>
<path d="M11702 12408 c2 -7 38 -118 79 -246 l75 -234 252 0 c139 0 251 4 249
9 -2 5 -70 116 -151 246 l-147 238 -181 0 c-140 0 -179 -2 -176 -13z"/>
<path d="M12087 12413 c2 -5 70 -116 151 -247 l147 -238 187 0 188 0 -35 39
c-20 22 -118 133 -218 247 l-183 208 -120 0 c-66 0 -119 -4 -117 -9z"/>
<path d="M12381 12382 c19 -22 117 -133 218 -247 l182 -207 70 0 69 1 -252
246 c-226 221 -255 246 -287 246 l-35 1 35 -40z"/>
<path d="M9504 11764 c-13 -73 -22 -134 -20 -136 4 -4 139 201 170 255 5 10
-9 14 -60 14 l-67 0 -23 -133z"/>
<path d="M9590 11747 c-53 -82 -95 -151 -94 -152 3 -3 521 287 531 297 2 3
-74 4 -168 4 l-173 0 -96 -149z"/>
<path d="M9818 11748 c-142 -81 -248 -144 -237 -141 54 14 925 282 929 285 2
3 -95 4 -216 4 l-219 0 -257 -148z"/>
<path d="M10161 11762 c-236 -73 -425 -134 -420 -135 4 -1 308 58 675 133
l667 134 -247 0 -247 0 -428 -132z"/>
<path d="M10406 11734 l-793 -161 1622 0 c892 0 1613 3 1601 6 -116 28 -1579
317 -1604 316 -19 0 -390 -73 -826 -161z"/>
<path d="M11419 11889 c72 -18 1311 -265 1313 -263 2 2 -193 64 -434 137
l-438 134 -231 -1 c-127 -1 -222 -4 -210 -7z"/>
<path d="M11960 11892 c4 -3 875 -271 929 -285 11 -3 -95 60 -236 141 l-258
148 -219 0 c-121 0 -218 -1 -216 -4z"/>
<path d="M12443 11892 c10 -10 528 -300 531 -297 1 1 -41 70 -94 152 l-96 149
-173 0 c-94 0 -170 -1 -168 -4z"/>
<path d="M12816 11883 c31 -54 166 -259 170 -255 2 2 -7 63 -20 136 l-23 133
-67 0 c-51 0 -65 -4 -60 -14z"/>
<path d="M9503 11536 c3 -2 112 -73 243 -158 l238 -153 1251 0 1251 0 238 153
c131 85 240 156 243 158 2 2 -777 4 -1732 4 -955 0 -1734 -2 -1732 -4z"/>
<path d="M9467 11400 c-8 -165 -32 -5592 -25 -5599 2 -3 190 105 416 239 363
216 410 247 411 271 1 41 -284 4853 -289 4877 -3 14 -83 71 -232 168 -125 81
-238 153 -251 160 l-24 13 -6 -129z"/>
<path d="M12744 11369 c-165 -106 -251 -167 -254 -181 -5 -24 -290 -4836 -289
-4877 1 -24 48 -55 411 -271 226 -134 414 -242 416 -239 8 7 -19 5538 -27
5642 l-7 87 -250 -161z"/>
<path d="M9310 11236 l-122 -250 0 -2628 0 -2627 23 5 c13 3 62 14 109 24 l86
18 6 148 c8 189 32 5549 26 5556 -3 3 -61 -108 -128 -246z"/>
<path d="M13031 11193 c-2 -573 21 -5120 27 -5267 l6 -148 86 -18 c47 -10 96
-21 109 -24 l24 -5 -1 2628 0 2629 -125 252 -125 252 -1 -299z"/>
<path d="M10007 11188 c0 -3 184 -1064 409 -2358 225 -1294 410 -2358 410
-2363 0 -6 166 -9 409 -9 243 0 410 3 410 9 0 5 184 1069 409 2363 225 1294
410 2355 410 2358 0 3 -553 5 -1229 5 -676 0 -1228 -2 -1228 -5z"/>
<path d="M10022 10899 c54 -943 272 -4595 274 -4597 2 -4 499 143 506 149 4 4
-752 4370 -775 4474 -8 36 -9 33 -5 -26z"/>
<path d="M12055 8708 c-215 -1238 -389 -2254 -387 -2257 7 -6 504 -153 506
-149 4 5 279 4653 276 4656 -1 1 -179 -1011 -395 -2250z"/>
<path d="M9077 10291 l-72 -471 74 -1684 74 -1684 2 2155 c0 1186 0 2156 -2
2156 -2 0 -36 -212 -76 -472z"/>
<path d="M13315 8609 l2 -2157 74 1684 74 1685 -72 468 c-39 258 -73 470 -75
473 -2 2 -3 -967 -3 -2153z"/>
<path d="M9002 10203 c-52 -226 -94 -413 -93 -415 2 -2 19 6 38 18 l35 21 60
387 c34 212 60 389 58 394 -1 4 -45 -178 -98 -405z"/>
<path d="M13368 10595 c0 -15 3 -21 5 -14 3 8 3 19 0 27 -2 7 -5 1 -5 -13z"/>
<path d="M13378 10553 c0 -9 24 -176 55 -371 l55 -355 35 -21 c19 -12 36 -20
38 -18 2 3 -170 750 -178 770 -2 6 -5 3 -5 -5z"/>
<path d="M8943 9782 l-39 -22 0 -1927 0 -1927 124 -81 123 -81 2 65 c1 36 -37
950 -84 2031 l-86 1965 -40 -23z"/>
<path d="M13399 7779 c-48 -1114 -86 -2028 -83 -2030 2 -3 59 32 127 76 l123
81 0 1927 0 1927 -40 22 -39 23 -88 -2026z"/>
<path d="M10591 6364 l-198 -59 421 -2 c231 -2 610 -2 842 0 l421 2 -208 61
-209 60 -435 -1 -436 -2 -198 -59z"/>
<path d="M9876 6029 l-399 -238 879 -3 c484 -1 1274 -1 1758 0 l879 3 -401
239 -401 239 -958 -1 -959 -1 -398 -238z"/>
<path d="M9371 5749 c-6 -2 -47 -12 -92 -22 l-81 -17 92 -66 92 -66 6 38 c24
140 23 147 -17 133z"/>
<path d="M9463 5729 c7 -13 61 -98 118 -189 l105 -164 1549 0 1549 0 105 164
c58 91 111 176 118 189 l14 25 -1786 0 -1786 0 14 -25z"/>
<path d="M13068 5705 c4 -28 10 -68 14 -89 l6 -38 92 66 92 66 -81 18 c-45 9
-93 20 -106 23 -24 6 -24 4 -17 -46z"/>
<path d="M9425 5700 c-3 -20 -9 -59 -12 -88 l-6 -52 124 -84 c86 -58 119 -76
107 -58 -9 15 -56 88 -104 163 -48 75 -90 140 -95 145 -4 5 -10 -7 -14 -26z"/>
<path d="M12936 5580 c-55 -85 -104 -162 -109 -170 -5 -9 46 21 113 67 l123
83 -7 61 c-14 130 -10 131 -120 -41z"/>
<path d="M9739 5335 c6 -5 122 -87 259 -183 l249 -175 988 0 988 0 249 175
c137 96 253 179 259 184 5 5 -659 9 -1496 9 -845 0 -1501 -4 -1496 -10z"/>
<path d="M8291 9295 c-2 -4 -8 -30 -12 -58 l-7 -49 248 0 248 0 0 57 0 58
-236 0 c-130 0 -238 -4 -241 -8z"/>
<path d="M13703 9245 l0 -57 247 0 248 0 -7 49 c-4 28 -10 54 -12 58 -3 4
-111 8 -241 8 l-235 0 0 -58z"/>
<path d="M8254 9027 c-7 -70 -16 -148 -19 -173 l-6 -44 269 0 270 0 0 173 0
173 -251 0 -250 0 -13 -129z"/>
<path d="M13703 8983 l0 -173 269 0 269 0 -6 44 c-3 25 -12 103 -19 173 l-13
129 -250 0 -250 0 0 -173z"/>
<path d="M8112 7841 l-115 -938 381 -708 c210 -390 383 -711 386 -713 2 -3 4
738 4 1646 l0 1650 -271 0 -271 0 -114 -937z"/>
<path d="M13703 7128 c0 -908 1 -1649 3 -1646 3 2 176 323 386 713 l381 708
-115 938 -114 937 -271 0 -270 0 0 -1650z"/>
<path d="M8001 5390 l0 -1459 522 -390 c288 -214 524 -386 525 -382 1 4 -60
515 -137 1136 l-140 1129 -381 708 c-210 390 -383 711 -385 713 -2 3 -4 -652
-4 -1455z"/>
<path d="M14081 6135 l-382 -711 -140 -1129 c-77 -621 -138 -1132 -137 -1136
1 -4 237 168 525 382 l522 390 0 1458 c0 801 -1 1457 -3 1457 -1 0 -174 -320
-385 -711z"/>
<path d="M8802 5359 c4 -22 63 -506 133 -1075 70 -569 130 -1047 134 -1063 7
-24 60 135 270 806 143 459 259 837 257 839 -7 6 -769 516 -785 526 -12 7 -14
1 -9 -33z"/>
<path d="M13271 5133 c-216 -145 -395 -265 -397 -267 -2 -2 114 -380 257 -839
210 -670 263 -830 270 -806 9 37 271 2168 267 2172 -2 2 -181 -115 -397 -260z"/>
<path d="M9604 4801 c-74 -227 -511 -1633 -509 -1635 3 -2 1262 1180 1339
1257 l34 34 -283 197 -282 197 -142 0 -141 0 -16 -50z"/>
<path d="M12283 4654 l-281 -197 32 -31 c74 -75 1338 -1262 1341 -1260 2 2
-435 1408 -509 1635 l-16 50 -143 -1 -144 0 -280 -196z"/>
<path d="M9790 3793 l-689 -648 1067 -3 c587 -1 1547 -1 2134 0 l1067 3 -689
648 -690 649 -755 0 -756 0 -689 -649z"/>
<path d="M8748 2250 c0 -380 4 -734 8 -787 l6 -96 641 234 640 234 3 513 3
514 -638 39 c-351 22 -644 40 -651 39 -11 0 -13 -145 -12 -690z"/>
<path d="M9602 2913 c341 -23 414 -24 1633 -24 1219 0 1292 1 1633 24 l357 24
-1990 0 -1990 0 357 -24z"/>
<path d="M13007 2900 l-586 -38 3 -515 3 -514 640 -233 641 -233 6 117 c4 65
7 418 8 787 l2 669 -66 -1 c-36 -1 -329 -19 -651 -39z"/>
<path d="M8537 2717 l-172 -201 -46 -237 c-25 -130 -45 -242 -45 -249 0 -8
100 -154 223 -324 l223 -311 3 654 c1 360 -1 703 -5 762 l-8 107 -173 -201z"/>
<path d="M13750 2728 c-4 -106 -5 -449 -4 -763 l4 -570 223 311 c123 170 223
316 223 324 0 7 -20 120 -45 250 l-46 237 -161 188 c-88 103 -167 194 -174
202 -10 11 -14 -25 -20 -179z"/>
<path d="M10091 2352 l0 -504 1144 0 1145 0 0 504 0 504 -1145 0 -1144 0 0
-504z m1014 282 l67 -65 0 -130 0 -131 -55 -57 c-30 -32 -57 -62 -59 -68 -2
-5 -47 -9 -100 -9 l-97 0 -71 70 -69 70 0 123 0 123 70 69 71 69 88 0 87 1 68
-65z m521 -6 l71 -71 0 -122 0 -121 -70 -70 -70 -70 -91 0 -91 0 -70 70 -70
70 0 123 0 123 71 69 71 69 89 0 89 1 71 -71z"/>
<path d="M10869 2638 c4 -29 4 -29 83 -29 78 0 78 0 82 29 l3 29 -85 0 -86 0
3 -29z"/>
<path d="M10796 2611 c-31 -32 -44 -53 -44 -75 l0 -31 53 52 c32 32 52 61 52
75 0 34 -10 31 -61 -21z"/>
<path d="M11046 2629 c0 -23 12 -43 47 -77 l48 -47 0 32 c0 23 -13 43 -48 78
l-47 46 0 -32z"/>
<path d="M10807 2538 c-50 -50 -55 -60 -55 -103 0 -43 5 -52 55 -102 l56 -54
89 0 90 0 49 50 c47 48 50 53 50 109 0 56 -2 60 -53 107 l-52 49 -87 0 -87 0
-55 -56z"/>
<path d="M10752 2325 c0 -24 12 -43 47 -78 l48 -46 0 31 c0 24 -13 43 -48 78
l-47 46 0 -31z"/>
<path d="M11091 2307 c-30 -33 -45 -59 -45 -78 0 -29 0 -29 48 19 38 38 47 54
45 78 l-4 29 -44 -48z"/>
<path d="M10878 2215 l0 -32 76 3 c74 3 76 4 80 32 l3 29 -80 0 -79 0 0 -32z"/>
<path d="M11384 2638 c3 -29 4 -29 82 -29 78 0 79 0 82 29 l3 29 -85 0 -85 0
3 -29z"/>
<path d="M11311 2611 c-32 -32 -44 -53 -44 -75 l0 -31 52 52 c33 32 53 61 53
75 0 34 -11 31 -61 -21z"/>
<path d="M11561 2632 c0 -14 19 -43 52 -75 l53 -52 0 31 c0 22 -13 43 -45 75
-50 52 -60 55 -60 21z"/>
<path d="M11321 2538 c-49 -50 -54 -60 -54 -103 0 -43 4 -52 55 -102 l55 -54
90 0 89 0 55 55 c49 50 55 60 55 103 0 43 -5 52 -56 102 l-55 55 -90 0 -89 0
-55 -56z"/>
<path d="M11267 2325 c0 -24 12 -43 47 -78 l47 -46 0 31 c0 24 -12 43 -47 78
l-47 46 0 -31z"/>
<path d="M11610 2302 c-29 -29 -49 -60 -49 -74 0 -33 10 -29 61 23 35 35 44
52 42 74 -4 28 -4 28 -54 -23z"/>
<path d="M11393 2215 l0 -32 76 3 c74 3 76 4 79 32 l3 29 -79 0 -79 0 0 -32z"/>
<path d="M8012 2309 c-13 -127 -22 -233 -20 -234 7 -6 251 -41 255 -37 6 6 92
463 88 466 -3 3 -270 37 -289 37 -5 0 -20 -104 -34 -232z"/>
<path d="M14259 2523 c-66 -9 -122 -17 -124 -19 -4 -3 82 -460 88 -466 4 -4
248 31 255 37 2 1 -7 107 -20 234 l-25 232 -26 -1 c-15 -1 -82 -9 -148 -17z"/>
<path d="M8300 1847 l21 -127 171 -146 c93 -80 173 -146 176 -146 4 0 -361
514 -382 538 -4 4 2 -50 14 -119z"/>
<path d="M13993 1701 c-107 -150 -193 -273 -191 -273 3 0 83 66 176 146 l171
146 21 127 c12 70 21 127 21 127 -1 0 -90 -123 -198 -273z"/>
<path d="M9435 1593 l-608 -223 1204 -2 c662 -2 1746 -2 2408 0 l1203 2 -615
223 -616 224 -1184 -1 -1184 -1 -608 -222z"/>
<path d="M8407 1559 c34 -63 66 -123 72 -132 6 -10 49 -24 119 -38 59 -12 104
-18 99 -13 -4 4 -77 65 -160 136 -84 71 -162 137 -172 146 -11 9 8 -35 42 -99z"/>
<path d="M13944 1521 c-95 -81 -175 -149 -176 -150 -2 -2 46 7 105 18 69 14
112 28 118 38 18 29 132 243 129 242 -2 0 -81 -66 -176 -148z"/>
</g>
</svg>