<?xml version="1.0" standalone="no"?>
<!DOCTYPE svg PUBLIC "-//W3C//DTD SVG 20010904//EN"
 "http://www.w3.org/TR/2001/REC-SVG-20010904/DTD/svg10.dtd">
<svg version="1.0" xmlns="http://www.w3.org/2000/svg"
 width="150.000000pt" height="150.111903pt" viewBox="0 0 480.000000 580.111903"
 preserveAspectRatio="xMidYMid meet">
<metadata>
Lumelight
</metadata>
<g transform="translate(-0.000000,581.003791) rotate(-360.00) scale(0.095238,-0.095238)"
fill="#fff" stroke="none">
<path d="M2541 6094 c0 -6 28 -112 63 -235 l63 -224 -24 -27 c-13 -15 -24 -29
-25 -31 -1 -2 -71 17 -155 42 -139 41 -153 47 -153 69 0 33 -36 66 -71 66 -27
0 -33 10 -91 137 -34 75 -63 135 -66 132 -2 -2 23 -63 56 -136 l60 -133 -23
-24 c-12 -14 -22 -35 -22 -47 0 -25 37 -12 -455 -160 l-291 -88 -21 23 c-48
52 -136 17 -136 -54 0 -40 23 -67 69 -79 28 -8 33 -20 95 -207 185 -569 242
-750 236 -750 -4 0 -115 92 -248 204 -133 112 -244 201 -247 199 -2 -3 0 -8 6
-12 7 -4 123 -102 260 -217 l248 -209 123 -221 c69 -122 126 -227 127 -234 2
-7 -1 -15 -8 -19 -8 -5 -318 167 -666 370 -5 3 -6 1 -3 -5 4 -5 151 -92 327
-193 l320 -183 1 -39 0 -39 -178 -90 c-99 -49 -179 -91 -179 -94 0 -3 81 35
181 85 145 72 184 88 197 78 8 -6 24 -14 34 -18 17 -5 19 -30 19 -308 l0 -302
-29 -7 c-25 -7 -42 7 -183 148 -86 86 -156 152 -156 147 0 -4 68 -75 152 -156
l152 -147 -6 -41 c-5 -28 -2 -48 10 -66 15 -23 14 -27 -7 -60 -40 -60 -72
-114 -67 -114 2 0 26 32 53 73 73 109 79 100 83 -119 l3 -180 3 178 c2 179 2
179 28 191 24 11 36 2 223 -176 108 -103 198 -186 200 -184 1 2 -18 137 -44
300 l-47 298 31 29 c17 15 31 38 31 50 0 13 6 23 13 23 7 0 76 11 152 25 77
13 140 20 140 15 0 -20 43 -51 72 -51 30 0 32 -3 169 -347 77 -191 141 -345
144 -342 2 2 -58 158 -134 346 l-138 341 23 32 c18 23 22 39 17 61 -4 16 -8
35 -9 42 -2 7 95 128 216 270 175 207 222 255 239 251 11 -3 23 -11 27 -17 4
-6 15 -162 25 -348 10 -185 18 -301 19 -257 0 43 -6 196 -14 341 -13 237 -13
263 2 273 9 6 26 20 37 32 l20 23 127 -41 c70 -22 129 -38 132 -36 2 3 -54 23
-125 45 -119 37 -130 43 -137 70 -4 16 -16 39 -26 50 -17 19 -13 33 92 306
141 370 133 367 206 84 79 -304 84 -325 86 -307 0 9 -28 127 -63 262 -60 232
-66 273 -43 273 5 0 55 -43 111 -96 56 -53 103 -94 106 -91 2 2 -43 48 -100
101 -96 90 -104 100 -98 128 4 20 0 40 -10 56 -16 25 -14 31 68 175 46 82 82
151 80 153 -3 2 -42 -61 -87 -141 l-81 -146 -54 -5 -53 -5 -373 316 c-205 174
-383 324 -394 334 -16 13 -19 21 -10 29 9 9 131 -6 483 -62 259 -41 483 -77
498 -79 22 -4 23 -4 5 5 -17 7 -945 158 -974 158 -4 0 -8 11 -8 26 0 33 -34
68 -67 68 -24 0 -29 13 -90 234 -62 219 -74 257 -74 232z m-369 -469 l23 -25
-151 -314 c-135 -281 -154 -314 -176 -315 -14 0 -35 -4 -46 -7 -17 -6 -61 32
-224 189 -200 195 -202 197 -195 234 l6 37 364 111 c200 61 366 112 370 113 3
0 16 -10 29 -23z m296 -19 c140 -42 145 -44 151 -76 5 -23 1 -37 -12 -50 -10
-10 -166 -131 -346 -271 -276 -213 -360 -272 -360 -250 0 2 67 145 150 318
l151 314 40 7 c25 4 47 15 56 29 8 12 17 22 20 22 3 0 71 -19 150 -43z m230
-136 l37 0 108 -191 c59 -106 159 -282 221 -392 l114 -201 -22 -26 -22 -27
-592 124 c-325 68 -593 126 -595 128 -1 1 -4 16 -6 32 -3 26 24 50 348 301
222 172 355 269 362 262 5 -5 26 -10 47 -10z m832 -686 c-2 -24 -5 -45 -7 -47
-2 -2 -53 -23 -113 -48 l-109 -45 -29 25 c-19 16 -40 24 -56 22 -25 -3 -43 26
-250 391 -123 217 -221 397 -219 401 3 4 181 -141 396 -324 l390 -331 -3 -44z
m-1890 315 l155 -147 -7 -46 c-5 -37 -2 -49 17 -70 l23 -24 -75 -223 c-42
-122 -79 -218 -84 -214 -17 19 -306 939 -300 955 8 19 7 20 271 -231z m899
-352 c325 -68 592 -126 595 -128 2 -3 5 -17 7 -32 3 -26 -11 -38 -172 -144
l-176 -116 -31 18 c-26 15 -36 15 -67 4 l-37 -13 -145 103 c-80 57 -243 174
-363 259 -120 85 -216 159 -212 164 7 12 -93 31 601 -115z m-236 -172 c253
-179 353 -256 349 -267 -3 -8 -6 -29 -6 -45 0 -28 -20 -43 -306 -221 -275
-171 -307 -188 -322 -174 -10 8 -34 17 -53 19 -35 3 -40 9 -161 224 -85 151
-122 227 -119 243 3 12 39 120 80 239 67 193 77 216 98 216 13 0 32 7 43 15
11 8 25 12 31 8 6 -3 171 -119 366 -257z m1246 129 c12 -12 21 -24 21 -29 0
-4 -48 -134 -107 -288 -78 -205 -112 -281 -124 -281 -13 0 -24 41 -53 212
l-37 213 23 18 c13 11 25 33 27 51 3 30 10 35 114 78 60 26 111 46 112 47 2 0
12 -9 24 -21z m-323 -178 c9 0 24 -60 48 -197 18 -109 34 -203 34 -211 0 -7
-13 -24 -27 -37 -29 -24 -34 -47 -23 -93 7 -26 -14 -53 -209 -284 -120 -140
-218 -256 -219 -258 -2 -1 -15 2 -30 8 -26 10 -27 14 -31 102 l-3 93 -2 -96
c-2 -90 -4 -96 -28 -107 -16 -7 -30 -25 -35 -46 l-9 -34 -146 -25 -145 -24
-25 27 -25 27 176 413 c120 283 179 412 189 409 7 -3 15 -28 17 -60 l4 -54 2
61 c1 38 6 60 14 60 27 0 51 35 51 78 l0 43 176 116 c169 113 176 117 204 103
15 -8 34 -14 42 -14z m-549 -315 c12 -8 4 -36 -49 -160 -312 -734 -284 -675
-318 -676 -48 -2 -73 -31 -73 -84 0 -43 -2 -45 -99 -118 -95 -71 -100 -74
-132 -62 l-32 12 0 302 c0 262 2 303 16 303 29 0 57 40 58 81 l0 39 296 186
c163 102 301 185 307 186 6 0 18 -4 26 -9z m-358 -1005 c5 -3 93 -570 88 -570
-3 0 -86 77 -185 172 l-180 172 2 56 2 56 102 75 102 75 33 -17 c18 -10 34
-18 36 -19z"/>
<path d="M2744 3985 c-1 -52 3 -149 7 -215 l7 -121 0 94 c1 52 -3 149 -7 216
l-7 120 0 -94z"/>
<path d="M0 1407 l0 -693 362 0 c315 0 363 2 363 16 0 13 -47 16 -352 16
l-352 0 0 677 c0 444 -4 677 -10 677 -7 0 -11 -238 -11 -693z"/>
<path d="M998 1619 c0 -520 2 -543 58 -655 34 -66 120 -159 181 -194 102 -61
258 -83 379 -55 178 41 323 195 364 386 20 96 22 1003 2 996 -10 -3 -14 -118
-19 -507 -5 -493 -5 -505 -29 -562 -64 -161 -184 -264 -337 -293 -163 -31
-312 9 -423 113 -59 55 -92 108 -126 198 -23 60 -24 75 -27 558 -2 302 -8 496
-14 496 -6 0 -9 -186 -9 -481z"/>
<path d="M2457 1405 c0 -460 4 -692 10 -685 7 7 12 250 14 666 l2 656 310
-522 c206 -347 315 -522 325 -520 8 2 150 237 315 524 l300 521 2 -666 c2
-437 7 -664 14 -660 13 9 14 1381 0 1381 -5 0 -148 -241 -317 -535 -170 -295
-311 -536 -315 -536 -3 0 -149 241 -325 536 -175 294 -322 535 -326 535 -5 0
-9 -313 -9 -695z"/>
<path d="M4232 1407 l0 -693 400 3 c310 2 402 5 405 15 4 11 -79 14 -390 14
l-394 0 0 330 0 331 336 0 c217 0 336 4 336 11 0 6 -119 10 -336 10 l-336 0 0
326 0 325 393 0 c256 0 394 4 394 11 0 6 -142 10 -404 10 l-404 0 0 -693z"/>
<path d="M1008 105 l0 -94 53 0 c28 0 52 4 52 10 0 6 -19 11 -42 11 l-42 0 0
84 c0 49 -4 84 -10 84 -7 0 -11 -39 -11 -95z"/>
<path d="M1197 105 c0 -56 4 -94 11 -94 6 0 10 38 10 94 0 56 -4 95 -10 95 -7
0 -11 -39 -11 -95z"/>
<path d="M1347 183 c-49 -33 -40 -136 14 -161 64 -29 120 -7 120 47 0 33 -3
36 -32 36 -17 0 -31 -5 -31 -10 0 -6 7 -11 16 -11 27 0 14 -47 -14 -51 -43 -6
-76 25 -76 71 0 56 28 79 84 71 23 -4 42 -3 42 2 0 26 -89 30 -123 6z"/>
<path d="M1565 105 c0 -77 2 -94 15 -94 12 0 16 11 16 42 l0 42 47 0 c46 0 46
-1 49 -39 2 -21 10 -41 17 -43 10 -3 13 20 13 91 0 78 -3 96 -16 96 -11 0 -15
-12 -15 -42 l0 -42 -48 0 -47 0 0 42 c0 30 -4 42 -16 42 -13 0 -15 -18 -15
-95z"/>
<path d="M1796 189 c0 -6 14 -10 31 -10 l32 0 0 -84 c0 -68 3 -84 15 -84 13 0
16 16 16 84 l0 84 32 0 c17 0 31 4 31 10 0 6 -33 11 -79 11 -45 0 -78 -5 -78
-11z"/>
<path d="M2027 105 c0 -77 2 -94 15 -94 13 0 16 17 16 94 0 77 -3 95 -16 95
-13 0 -15 -18 -15 -95z"/>
<path d="M2163 105 c0 -109 18 -129 23 -26 l3 69 52 -69 c29 -38 56 -68 60
-68 5 0 9 42 9 94 0 109 -18 129 -23 25 l-3 -69 -51 69 c-28 38 -55 70 -60 70
-6 0 -10 -43 -10 -95z"/>
<path d="M2426 174 c-18 -19 -24 -39 -24 -71 0 -71 57 -107 136 -86 20 5 24
14 24 47 0 37 -3 41 -26 41 -15 0 -26 -5 -26 -10 0 -6 7 -11 16 -11 11 0 15
-8 13 -24 -2 -18 -11 -24 -37 -26 -67 -7 -103 76 -54 125 18 18 30 21 69 16
41 -6 46 -5 34 9 -21 26 -97 20 -125 -10z"/>
<path d="M2674 180 c-27 -30 -21 -40 8 -13 28 26 54 24 66 -6 4 -11 -1 -24
-15 -35 -22 -17 -22 -17 -1 -30 12 -8 19 -22 17 -36 -4 -31 -57 -38 -77 -11
-14 18 -15 18 -15 1 -1 -26 49 -44 80 -30 32 14 41 50 20 74 -12 13 -14 22 -7
26 15 10 15 51 -1 67 -19 18 -55 15 -75 -7z"/>
<path d="M2856 105 l0 -94 53 0 c45 0 58 4 84 30 33 33 39 70 19 109 -20 38
-43 49 -101 49 l-55 1 0 -95z m117 56 c12 -11 20 -32 20 -57 0 -46 -28 -72
-76 -72 -29 0 -29 0 -29 73 l0 74 33 0 c18 0 42 -8 52 -18z"/>
<path d="M3108 105 l0 -94 58 0 c32 0 58 4 58 10 0 6 -19 11 -42 11 -40 0 -42
1 -42 31 0 28 3 32 30 32 17 0 34 4 38 10 4 6 -9 11 -31 11 -35 0 -37 2 -37
31 0 30 2 32 42 32 23 0 42 4 42 10 0 6 -26 11 -58 11 l-58 0 0 -95z"/>
<path d="M3319 185 c-23 -28 -9 -63 33 -83 63 -31 45 -91 -19 -62 -30 14 -45
-3 -16 -18 32 -17 69 -14 89 9 23 25 18 63 -9 78 -61 33 -68 39 -61 55 5 13
15 15 42 11 25 -4 35 -2 32 7 -7 19 -76 21 -91 3z"/>
<path d="M3507 105 c0 -77 3 -94 16 -94 13 0 16 17 16 94 0 77 -3 95 -16 95
-13 0 -16 -18 -16 -95z"/>
<path d="M3654 174 c-17 -19 -24 -39 -24 -71 0 -71 57 -107 137 -86 19 5 24
14 24 47 0 37 -3 41 -27 41 -14 0 -26 -5 -26 -10 0 -6 7 -11 16 -11 12 0 16
-8 14 -24 -3 -18 -12 -24 -37 -26 -67 -7 -103 76 -55 125 19 18 30 21 70 16
41 -6 45 -5 34 9 -22 26 -97 20 -126 -10z"/>
<path d="M3885 105 c0 -110 19 -129 23 -24 l3 70 53 -70 c29 -39 56 -70 60
-70 4 0 8 42 8 94 0 56 -4 95 -10 95 -6 0 -11 -31 -11 -70 l0 -70 -54 70 c-29
38 -58 70 -63 70 -5 0 -9 -43 -9 -95z"/>
</g>
</svg>
