<?xml version="1.0" standalone="no"?>
<!DOCTYPE svg PUBLIC "-//W3C//DTD SVG 20010904//EN"
 "http://www.w3.org/TR/2001/REC-SVG-20010904/DTD/svg10.dtd">
<svg version="1.0" xmlns="http://www.w3.org/2000/svg"
 width="107.910538pt" height="172.768783pt" viewBox="0 0 107.910538 172.768783"
 preserveAspectRatio="xMidYMid meet">
<metadata>
Created by Potrace Professional 1.1m
</metadata>
<g transform="translate(-251.436141,231.783567) rotate(-360.00) scale(0.095238,-0.095238)"
fill="#000000" stroke="none">
<path d="M3165 2422 c-24 -7 -65 -32 -92 -56 l-49 -43 0 -652 0 -652 221 0
220 0 0 652 0 652 -49 43 c-72 64 -156 83 -251 56z m152 -20 c28 -7 63 -26 85
-47 l37 -34 -194 0 -194 0 34 33 c33 34 138 74 169 65 8 -3 36 -10 63 -17z
m138 -307 l0 -205 -210 0 -210 0 0 205 0 205 210 0 210 0 0 -205z m0 -378 l0
-163 -210 0 -210 0 0 163 0 163 210 0 210 0 0 -163z m0 -226 l0 -52 -210 0
-210 0 0 52 0 53 210 0 210 0 0 -53z m0 -110 l0 -37 -210 0 -210 0 0 37 0 37
210 0 210 0 0 -37z m0 -110 l0 -53 -210 0 -210 0 0 53 0 52 210 0 210 0 0 -52z
m0 -147 l0 -84 -210 0 -210 0 0 84 0 84 210 0 210 0 0 -84z"/>
<path d="M2772 974 c0 -43 -13 -52 -61 -41 -50 11 -58 4 -68 -64 -6 -39 -6
-40 34 -46 66 -10 67 -12 49 -104 -8 -46 -13 -87 -10 -91 6 -11 1051 -11 1057
-1 2 5 -10 90 -28 189 l-32 182 -470 0 -471 0 0 -24z m857 -26 l-50 -38 -332
-1 -333 -1 -51 40 -52 39 434 0 433 0 -49 -39z m-693 -117 c19 -44 20 -56 9
-82 -22 -52 -83 -95 -149 -103 -31 -4 -59 -6 -60 -4 -2 2 10 77 26 167 17 89
30 164 31 166 0 1 27 -19 61 -45 44 -35 67 -62 82 -99z m791 -25 c16 -88 28
-162 26 -164 -1 -2 -29 0 -61 4 -66 8 -133 56 -151 107 -16 47 22 120 92 176
32 25 59 44 62 42 2 -2 16 -76 32 -165z m-994 101 c-7 -3 -21 -3 -32 -1 -10 3
-4 5 13 5 18 1 26 -2 19 -4z m17 -32 c3 -2 2 -6 -2 -10 -10 -10 -81 6 -81 18
0 9 71 3 83 -8z m342 -31 c4 -21 5 -39 4 -40 -2 -2 -31 -6 -63 -9 l-60 -6 -16
42 c-10 22 -17 43 -17 46 0 3 33 5 72 5 l73 0 7 -38z m287 -4 l-11 -42 -123 0
-124 0 -11 42 -10 42 145 0 144 0 -10 -42z m170 37 c0 -3 -7 -24 -17 -46 l-16
-42 -60 6 c-32 3 -61 7 -63 9 -1 1 0 19 4 40 l7 38 73 0 c39 0 72 -2 72 -5z
m-848 -33 c-7 -3 -21 -3 -31 -1 -10 3 -5 5 13 5 17 1 25 -2 18 -4z m47 -10
c-3 -4 -12 -4 -20 -1 -8 3 -6 6 6 6 11 1 18 -2 14 -5z m344 -120 c-34 -34 -65
-59 -69 -55 -6 7 -41 105 -41 115 0 1 39 3 86 3 l87 0 -63 -63z m289 -5 l68
-68 -204 0 -205 0 68 68 68 68 69 0 68 0 68 -68z m126 65 c0 -10 -35 -108 -41
-115 -4 -4 -35 21 -69 55 l-63 63 87 0 c47 0 86 -2 86 -3z m-520 -70 c8 -26 8
-26 -13 -7 -12 10 -19 26 -16 34 7 19 19 8 29 -27z m534 -3 c-23 -25 -28 -18
-14 19 9 24 14 27 21 15 6 -10 4 -22 -7 -34z m-549 -34 l24 -26 -31 1 c-16 0
-42 4 -56 8 l-26 7 26 18 c32 23 33 23 63 -8z m608 8 l26 -18 -26 -7 c-14 -4
-40 -8 -56 -8 l-31 -1 25 26 c29 31 30 31 62 8z"/>
</g>
</svg>
