<?xml version="1.0" standalone="no"?>
<!DOCTYPE svg PUBLIC "-//W3C//DTD SVG 20010904//EN"
 "http://www.w3.org/TR/2001/REC-SVG-20010904/DTD/svg10.dtd">
<svg version="1.0" xmlns="http://www.w3.org/2000/svg"
 width="75.510813pt" height="163.034389pt" viewBox="0 0 75.510813 163.034389"
 preserveAspectRatio="xMidYMid meet">
<metadata>
Created by Potrace Professional 1.1m
</metadata>
<g transform="translate(-271.199244,300.034389) rotate(-360.00) scale(0.095238,-0.095238)"
fill="#000000" stroke="none">
<path d="M2952 3103 c-76 -119 -84 -183 -91 -672 -3 -231 -8 -469 -11 -528 -6
-101 -4 -115 33 -241 37 -130 40 -136 90 -179 l52 -44 221 0 221 0 53 50 c51
49 55 57 87 172 l33 120 -9 535 c-7 416 -12 548 -24 593 -9 32 -16 70 -17 84
0 14 -18 54 -40 89 l-39 63 -265 3 -264 2 -30 -47z m70 -26 c-18 -43 -27 -53
-47 -53 l-25 0 27 53 c18 35 33 52 47 52 19 0 19 -1 -2 -52z m107 46 c0 -3 -5
-27 -12 -52 -11 -46 -13 -47 -53 -47 -29 0 -41 4 -37 13 2 7 11 31 19 53 12
34 18 39 48 39 19 0 35 -3 35 -6z m105 -46 l0 -53 -52 0 c-58 0 -60 2 -42 66
10 37 13 39 52 39 l42 0 0 -52z m109 34 c3 -10 8 -34 12 -53 l7 -34 -54 0 -53
0 0 53 0 52 41 0 c31 0 43 -5 47 -18z m94 -11 c8 -16 18 -39 22 -52 7 -22 4
-24 -34 -24 -40 0 -42 1 -53 47 -16 61 -17 58 19 58 24 0 35 -7 46 -29z m75
-23 l27 -53 -25 0 c-20 0 -29 10 -47 53 -21 51 -21 52 -2 52 14 0 29 -17 47
-52z m-552 -84 c-28 -22 -34 -22 -24 3 3 10 16 18 27 18 20 0 20 -2 -3 -21z
m85 11 c-9 -5 -28 -13 -42 -17 -23 -7 -25 -6 -12 9 8 10 27 17 42 17 21 0 24
-2 12 -9z m318 -51 c-65 -2 -172 -2 -237 0 l-118 3 120 26 120 27 116 -27 117
-26 -118 -3z m134 45 c15 -19 6 -19 -42 0 l-37 14 33 1 c18 0 38 -7 46 -15z
m56 -2 c10 -25 4 -25 -24 -3 -23 19 -23 21 -3 21 11 0 24 -8 27 -18z m6 -74
c0 -5 -21 -31 -46 -58 l-46 -50 -222 0 -223 0 -46 50 c-25 27 -46 53 -46 58 0
4 141 8 315 8 173 0 314 -4 314 -8z m-556 -705 l0 -592 -33 6 c-18 4 -39 7
-47 7 -12 0 -14 104 -14 638 l0 638 47 -53 46 -52 1 -592z m575 -574 c-2 -2
-23 -6 -47 -10 l-45 -7 0 589 0 590 45 53 44 53 3 -633 c1 -348 1 -634 0 -635z
m-113 1116 c0 -25 -3 -84 -7 -131 l-7 -87 -207 0 -206 0 -7 80 c-4 45 -7 104
-7 132 l0 51 221 0 220 0 0 -45z m-10 -664 l0 -425 -210 0 -210 0 0 425 0 425
210 0 210 0 0 -425z m-570 -181 c-2 -103 -3 -21 -3 181 0 202 1 286 3 187 2
-99 2 -265 0 -368z m724 -5 c-1 -100 -3 -21 -3 175 0 197 2 278 3 182 2 -96 2
-257 0 -357z m-149 -271 c4 -7 -70 -10 -215 -10 -146 0 -220 3 -216 10 4 6 88
11 216 11 127 0 211 -5 215 -11z m-504 -31 c-29 -13 -37 -13 -37 0 0 5 13 10
29 9 25 0 26 -2 8 -9z m614 0 c0 -13 -8 -13 -37 0 -18 7 -17 9 8 9 16 1 29 -4
29 -9z m-197 -8 c-71 -2 -186 -2 -257 0 -71 1 -13 3 129 3 141 0 199 -2 128
-3z m187 -40 c0 -13 -42 -15 -315 -15 -273 0 -315 2 -315 15 0 14 42 16 315
16 273 0 315 -2 315 -16z m-63 -68 l-37 -31 -215 0 -216 0 -36 31 -36 32 288
-1 288 0 -36 -31z"/>
</g>
</svg>
